<mxfile host="app.diagrams.net" agent="Mozilla/5.0 (X11; Linux x86_64; rv:139.0) Gecko/20100101 Firefox/139.0" version="27.1.1">
  <diagram name="Page-1" id="JcqKBOb1F13oiYuU-APF">
    <mxGraphModel dx="1369" dy="1139" grid="1" gridSize="10" guides="1" tooltips="1" connect="1" arrows="1" fold="1" page="1" pageScale="1" pageWidth="850" pageHeight="1100" math="0" shadow="0">
      <root>
        <mxCell id="0" />
        <mxCell id="1" parent="0" />
        <mxCell id="2_qpchY4eQDPO05ME19w-8" value="" style="group" parent="1" vertex="1" connectable="0">
          <mxGeometry x="290" y="320" width="230" height="210" as="geometry" />
        </mxCell>
        <mxCell id="2_qpchY4eQDPO05ME19w-6" value="" style="edgeStyle=orthogonalEdgeStyle;rounded=0;orthogonalLoop=1;jettySize=auto;html=1;" parent="2_qpchY4eQDPO05ME19w-8" source="2_qpchY4eQDPO05ME19w-2" edge="1">
          <mxGeometry relative="1" as="geometry">
            <mxPoint x="115" y="120" as="targetPoint" />
          </mxGeometry>
        </mxCell>
        <mxCell id="2_qpchY4eQDPO05ME19w-2" value="Recipe" style="rounded=0;whiteSpace=wrap;html=1;" parent="2_qpchY4eQDPO05ME19w-8" vertex="1">
          <mxGeometry width="230" height="30" as="geometry" />
        </mxCell>
        <mxCell id="2_qpchY4eQDPO05ME19w-3" value="&lt;div&gt;- ID : string&lt;/div&gt;&lt;div&gt;- Name : string&lt;/div&gt;&lt;div&gt;- List of ingredients : Foreign Key&lt;/div&gt;&lt;div&gt;- Preparation time : int&lt;/div&gt;&lt;div&gt;- Instructions : string&lt;/div&gt;&lt;div&gt;- List of tags : Foreign Key&lt;/div&gt;" style="rounded=0;whiteSpace=wrap;html=1;" parent="2_qpchY4eQDPO05ME19w-8" vertex="1">
          <mxGeometry y="30" width="230" height="90" as="geometry" />
        </mxCell>
        <mxCell id="2_qpchY4eQDPO05ME19w-7" value="&lt;div&gt;+ Submit a recipe&lt;/div&gt;&lt;div&gt;+ Edit&lt;/div&gt;&lt;div&gt;+ Delete&lt;/div&gt;&lt;div&gt;+ Tag the recipe&lt;/div&gt;" style="rounded=0;whiteSpace=wrap;html=1;" parent="2_qpchY4eQDPO05ME19w-8" vertex="1">
          <mxGeometry y="120" width="230" height="90" as="geometry" />
        </mxCell>
        <mxCell id="2_qpchY4eQDPO05ME19w-9" value="" style="group" parent="1" vertex="1" connectable="0">
          <mxGeometry x="-80" y="470" width="230" height="210" as="geometry" />
        </mxCell>
        <mxCell id="2_qpchY4eQDPO05ME19w-10" value="" style="edgeStyle=orthogonalEdgeStyle;rounded=0;orthogonalLoop=1;jettySize=auto;html=1;" parent="2_qpchY4eQDPO05ME19w-9" source="2_qpchY4eQDPO05ME19w-11" edge="1">
          <mxGeometry relative="1" as="geometry">
            <mxPoint x="115" y="120" as="targetPoint" />
          </mxGeometry>
        </mxCell>
        <mxCell id="2_qpchY4eQDPO05ME19w-11" value="Ingredient" style="rounded=0;whiteSpace=wrap;html=1;" parent="2_qpchY4eQDPO05ME19w-9" vertex="1">
          <mxGeometry width="230" height="30" as="geometry" />
        </mxCell>
        <mxCell id="2_qpchY4eQDPO05ME19w-12" value="&lt;div&gt;- ID : string&lt;/div&gt;&lt;div&gt;-&amp;nbsp;name :&amp;nbsp;string&lt;/div&gt;&lt;div&gt;- Recipe : Foreign Key&lt;/div&gt;" style="rounded=0;whiteSpace=wrap;html=1;" parent="2_qpchY4eQDPO05ME19w-9" vertex="1">
          <mxGeometry y="30" width="230" height="90" as="geometry" />
        </mxCell>
        <mxCell id="2_qpchY4eQDPO05ME19w-13" value="&lt;div&gt;+ Submit an ingredient&lt;/div&gt;" style="rounded=0;whiteSpace=wrap;html=1;" parent="2_qpchY4eQDPO05ME19w-9" vertex="1">
          <mxGeometry y="120" width="230" height="90" as="geometry" />
        </mxCell>
        <mxCell id="2_qpchY4eQDPO05ME19w-14" value="ID - uuid but no increment ?" style="text;html=1;align=center;verticalAlign=middle;whiteSpace=wrap;rounded=0;" parent="1" vertex="1">
          <mxGeometry x="120" y="50" width="240" height="30" as="geometry" />
        </mxCell>
        <mxCell id="2_qpchY4eQDPO05ME19w-15" value="&lt;div&gt;Recipe - ingredients =&amp;gt; association table ?&lt;/div&gt;" style="text;html=1;align=center;verticalAlign=middle;whiteSpace=wrap;rounded=0;" parent="1" vertex="1">
          <mxGeometry x="120" y="80" width="240" height="30" as="geometry" />
        </mxCell>
        <mxCell id="2_qpchY4eQDPO05ME19w-18" value="Contains" style="edgeStyle=orthogonalEdgeStyle;rounded=0;orthogonalLoop=1;jettySize=auto;html=1;exitX=0;exitY=0.5;exitDx=0;exitDy=0;entryX=1;entryY=0.5;entryDx=0;entryDy=0;endArrow=classic;startFill=0;startArrow=none;endFill=1;" parent="1" source="2_qpchY4eQDPO05ME19w-3" target="2_qpchY4eQDPO05ME19w-12" edge="1">
          <mxGeometry x="0.0049" relative="1" as="geometry">
            <mxPoint as="offset" />
          </mxGeometry>
        </mxCell>
        <mxCell id="2_qpchY4eQDPO05ME19w-20" value="&lt;div&gt;Recipe - instructions =&amp;gt; String ?&lt;/div&gt;&lt;div&gt;If string, no layout&lt;/div&gt;&lt;div&gt;Has to be stages&lt;/div&gt;&lt;div&gt;Association table ?&lt;/div&gt;" style="text;html=1;align=center;verticalAlign=middle;whiteSpace=wrap;rounded=0;" parent="1" vertex="1">
          <mxGeometry x="120" y="130" width="240" height="30" as="geometry" />
        </mxCell>
        <mxCell id="2_qpchY4eQDPO05ME19w-21" value="1" style="text;html=1;align=center;verticalAlign=middle;whiteSpace=wrap;rounded=0;" parent="1" vertex="1">
          <mxGeometry x="240" y="370" width="60" height="30" as="geometry" />
        </mxCell>
        <mxCell id="2_qpchY4eQDPO05ME19w-22" value="1..*" style="text;html=1;align=center;verticalAlign=middle;whiteSpace=wrap;rounded=0;" parent="1" vertex="1">
          <mxGeometry x="150" y="520" width="60" height="30" as="geometry" />
        </mxCell>
        <mxCell id="2_qpchY4eQDPO05ME19w-23" value="" style="group" parent="1" vertex="1" connectable="0">
          <mxGeometry x="640" y="470" width="230" height="210" as="geometry" />
        </mxCell>
        <mxCell id="2_qpchY4eQDPO05ME19w-24" value="" style="edgeStyle=orthogonalEdgeStyle;rounded=0;orthogonalLoop=1;jettySize=auto;html=1;" parent="2_qpchY4eQDPO05ME19w-23" source="2_qpchY4eQDPO05ME19w-25" edge="1">
          <mxGeometry relative="1" as="geometry">
            <mxPoint x="115" y="120" as="targetPoint" />
          </mxGeometry>
        </mxCell>
        <mxCell id="2_qpchY4eQDPO05ME19w-25" value="Tag" style="rounded=0;whiteSpace=wrap;html=1;" parent="2_qpchY4eQDPO05ME19w-23" vertex="1">
          <mxGeometry width="230" height="30" as="geometry" />
        </mxCell>
        <mxCell id="2_qpchY4eQDPO05ME19w-26" value="&lt;div&gt;- ID : string&lt;/div&gt;&lt;div&gt;- Name : string&lt;br&gt;- Recipe : Foreign Key&lt;/div&gt;" style="rounded=0;whiteSpace=wrap;html=1;" parent="2_qpchY4eQDPO05ME19w-23" vertex="1">
          <mxGeometry y="30" width="230" height="90" as="geometry" />
        </mxCell>
        <mxCell id="2_qpchY4eQDPO05ME19w-27" value="&lt;div&gt;+ Submit a tag&lt;/div&gt;" style="rounded=0;whiteSpace=wrap;html=1;" parent="2_qpchY4eQDPO05ME19w-23" vertex="1">
          <mxGeometry y="120" width="230" height="90" as="geometry" />
        </mxCell>
        <mxCell id="2_qpchY4eQDPO05ME19w-28" value="Contains" style="edgeStyle=orthogonalEdgeStyle;rounded=0;orthogonalLoop=1;jettySize=auto;html=1;exitX=1;exitY=0.5;exitDx=0;exitDy=0;entryX=0;entryY=0.5;entryDx=0;entryDy=0;endArrow=classic;startFill=0;endFill=1;" parent="1" source="2_qpchY4eQDPO05ME19w-3" target="2_qpchY4eQDPO05ME19w-26" edge="1">
          <mxGeometry relative="1" as="geometry" />
        </mxCell>
        <mxCell id="2_qpchY4eQDPO05ME19w-29" value="1" style="text;html=1;align=center;verticalAlign=middle;whiteSpace=wrap;rounded=0;" parent="1" vertex="1">
          <mxGeometry x="510" y="370" width="60" height="30" as="geometry" />
        </mxCell>
        <mxCell id="2_qpchY4eQDPO05ME19w-30" value="0..*" style="text;html=1;align=center;verticalAlign=middle;whiteSpace=wrap;rounded=0;" parent="1" vertex="1">
          <mxGeometry x="580" y="520" width="60" height="30" as="geometry" />
        </mxCell>
        <mxCell id="k0aN1hesgMusfAzjtdi0-1" value="" style="group" vertex="1" connectable="0" parent="1">
          <mxGeometry x="290" y="730" width="230" height="210" as="geometry" />
        </mxCell>
        <mxCell id="k0aN1hesgMusfAzjtdi0-2" value="" style="edgeStyle=orthogonalEdgeStyle;rounded=0;orthogonalLoop=1;jettySize=auto;html=1;" edge="1" parent="k0aN1hesgMusfAzjtdi0-1" source="k0aN1hesgMusfAzjtdi0-3">
          <mxGeometry relative="1" as="geometry">
            <mxPoint x="115" y="120" as="targetPoint" />
          </mxGeometry>
        </mxCell>
        <mxCell id="k0aN1hesgMusfAzjtdi0-3" value="Instruction" style="rounded=0;whiteSpace=wrap;html=1;" vertex="1" parent="k0aN1hesgMusfAzjtdi0-1">
          <mxGeometry width="230" height="30" as="geometry" />
        </mxCell>
        <mxCell id="k0aN1hesgMusfAzjtdi0-4" value="&lt;div&gt;ID : string&lt;/div&gt;&lt;div&gt;Text : string&lt;/div&gt;" style="rounded=0;whiteSpace=wrap;html=1;" vertex="1" parent="k0aN1hesgMusfAzjtdi0-1">
          <mxGeometry y="30" width="230" height="90" as="geometry" />
        </mxCell>
        <mxCell id="k0aN1hesgMusfAzjtdi0-5" value="" style="rounded=0;whiteSpace=wrap;html=1;" vertex="1" parent="k0aN1hesgMusfAzjtdi0-1">
          <mxGeometry y="120" width="230" height="90" as="geometry" />
        </mxCell>
        <mxCell id="k0aN1hesgMusfAzjtdi0-6" value="Contains" style="edgeStyle=orthogonalEdgeStyle;rounded=0;orthogonalLoop=1;jettySize=auto;html=1;exitX=0.5;exitY=1;exitDx=0;exitDy=0;entryX=0.5;entryY=0;entryDx=0;entryDy=0;" edge="1" parent="1" source="2_qpchY4eQDPO05ME19w-7" target="k0aN1hesgMusfAzjtdi0-3">
          <mxGeometry relative="1" as="geometry" />
        </mxCell>
        <mxCell id="k0aN1hesgMusfAzjtdi0-7" value="1" style="text;html=1;align=center;verticalAlign=middle;whiteSpace=wrap;rounded=0;" vertex="1" parent="1">
          <mxGeometry x="395" y="535" width="60" height="30" as="geometry" />
        </mxCell>
        <mxCell id="k0aN1hesgMusfAzjtdi0-8" value="1..*" style="text;html=1;align=center;verticalAlign=middle;whiteSpace=wrap;rounded=0;" vertex="1" parent="1">
          <mxGeometry x="400" y="690" width="60" height="30" as="geometry" />
        </mxCell>
      </root>
    </mxGraphModel>
  </diagram>
</mxfile>
